<?xml version="1.0" encoding="UTF-8"?>
<svg version="1.1" xmlns="http://www.w3.org/2000/svg" width="112" height="110">
<path d="M0 0 C36.96 0 73.92 0 112 0 C112 36.3 112 72.6 112 110 C75.04 110 38.08 110 0 110 C0 73.7 0 37.4 0 0 Z " fill="#EAEAEA" transform="translate(0,0)"/>
<path d="M0 0 C14.19 0 28.38 0 43 0 C43 4.95 43 9.9 43 15 C38.38 15 33.76 15 29 15 C29 28.86 29 42.72 29 57 C23.72 57 18.44 57 13 57 C13 43.14 13 29.28 13 15 C8.71 15 4.42 15 0 15 C0 10.05 0 5.1 0 0 Z " fill="#1C1C1C" transform="translate(19,23)"/>
<path d="M0 0 C13.2 0 26.4 0 40 0 C40 4.62 40 9.24 40 14 C35.71 14 31.42 14 27 14 C27 24.56 27 35.12 27 46 C22.05 46 17.1 46 12 46 C12 35.44 12 24.88 12 14 C8.04 14 4.08 14 0 14 C0 9.38 0 4.76 0 0 Z " fill="#2166EB" transform="translate(53,44)"/>
<path d="M0 0 C1.65 0 3.3 0 5 0 C5.33 0.66 5.66 1.32 6 2 C18.54 2.33 31.08 2.66 44 3 C44 3.33 44 3.66 44 4 C30.8 4 17.6 4 4 4 C4 8.62 4 13.24 4 18 C3.67 18 3.34 18 3 18 C3 16.02 3 14.04 3 12 C2.34 12 1.68 12 1 12 C1 15.63 1 19.26 1 23 C0.67 23 0.34 23 0 23 C0 15.41 0 7.82 0 0 Z " fill="#B8CAE9" transform="translate(49,40)"/>
<path d="M0 0 C0.33 0 0.66 0 1 0 C1 5.28 1 10.56 1 16 C-2.96 16 -6.92 16 -11 16 C-10.01 14.68 -9.02 13.36 -8 12 C-7.34 12 -6.68 12 -6 12 C-5.71382813 11.42765625 -5.42765625 10.8553125 -5.1328125 10.265625 C-3.421875 6.84375 -1.7109375 3.421875 0 0 Z " fill="#BFBEBF" transform="translate(111,94)"/>
<path d="M0 0 C4.29 0 8.58 0 13 0 C11.35 1.32 9.7 2.64 8 4 C4.55071024 7.1284256 2.40525442 9.52873593 1 14 C0.67 14 0.34 14 0 14 C0 9.38 0 4.76 0 0 Z " fill="#E1E1E2" transform="translate(0,0)"/>
<path d="M0 0 C2 2 2 2 3.75 5.375 C5.86500749 9.22046816 8.26304679 10.79180037 12 13 C12 13.33 12 13.66 12 14 C8.04 14 4.08 14 0 14 C0 9.38 0 4.76 0 0 Z " fill="#C0BFC0" transform="translate(0,96)"/>
<path d="M0 0 C3.96 0 7.92 0 12 0 C12 10.56 12 21.12 12 32 C11.67 32 11.34 32 11 32 C11 23.09 11 14.18 11 5 C10.01 4.67 9.02 4.34 8 4 C8 3.01 8 2.02 8 1 C5.36 1 2.72 1 0 1 C0 0.67 0 0.34 0 0 Z " fill="#CAD6EB" transform="translate(53,58)"/>
<path d="M0 0 C3.57967992 1.65215996 6.77982952 3.73124352 10 6 C10 6.33 10 6.66 10 7 C8.72125 7.061875 7.4425 7.12375 6.125 7.1875 C5.40570312 7.22230469 4.68640625 7.25710937 3.9453125 7.29296875 C3.30335937 7.19628906 2.66140625 7.09960938 2 7 C0 4 0 4 0 0 Z " fill="#AFAFAF" transform="translate(2,103)"/>
<path d="M0 0 C1.875 0.3125 1.875 0.3125 4 1 C4.66 1.99 5.32 2.98 6 4 C4.02 4.99 4.02 4.99 2 6 C1.01 4.68 0.02 3.36 -1 2 C-0.67 1.34 -0.34 0.68 0 0 Z " fill="#DFDFE0" transform="translate(6,102)"/>
<path d="M0 0 C0.33 0 0.66 0 1 0 C1 1.98 1 3.96 1 6 C-0.98 6 -2.96 6 -5 6 C-3.35830472 3.97945196 -1.69088222 1.97956942 0 0 Z " fill="#C1C0C0" transform="translate(111,104)"/>
<path d="M0 0 C0.598125 0.350625 1.19625 0.70125 1.8125 1.0625 C1.8125 2.0525 1.8125 3.0425 1.8125 4.0625 C0.4925 3.7325 -0.8275 3.4025 -2.1875 3.0625 C-2.1875 2.4025 -2.1875 1.7425 -2.1875 1.0625 C-3.1775 0.7325 -4.1675 0.4025 -5.1875 0.0625 C-2.1875 -0.9375 -2.1875 -0.9375 0 0 Z " fill="#D6D6D6" transform="translate(33.1875,84.9375)"/>
<path d="M0 0 C1.32 0.33 2.64 0.66 4 1 C3.01 2.485 3.01 2.485 2 4 C-0.625 4.1875 -0.625 4.1875 -3 4 C-2.01 2.68 -1.02 1.36 0 0 Z " fill="#AEADAD" transform="translate(103,106)"/>
</svg>
