<?xml version="1.0" encoding="UTF-8"?>
<svg version="1.1" xmlns="http://www.w3.org/2000/svg" width="210" height="210">
<path d="M0 0 C69.3 0 138.6 0 210 0 C210 69.3 210 138.6 210 210 C140.7 210 71.4 210 0 210 C0 140.7 0 71.4 0 0 Z " fill="#0C0C0D" transform="translate(0,0)"/>
<path d="M0 0 C30.03 0 60.06 0 91 0 C91 10.56 91 21.12 91 32 C81.1 32 71.2 32 61 32 C61 60.71 61 89.42 61 119 C50.44 119 39.88 119 29 119 C29 90.29 29 61.58 29 32 C19.43 32 9.86 32 0 32 C0 21.44 0 10.88 0 0 Z " fill="#DDDDDD" transform="translate(24,39)"/>
<path d="M0 0 C29.04 0 58.08 0 88 0 C88 10.23 88 20.46 88 31 C78.76 31 69.52 31 60 31 C60 52.78 60 74.56 60 97 C49.77 97 39.54 97 29 97 C29 75.22 29 53.44 29 31 C19.43 31 9.86 31 0 31 C0 20.77 0 10.54 0 0 Z " fill="#185DEA" transform="translate(96,83)"/>
<path d="M0 0 C0.33 0.99 0.66 1.98 1 3 C1.99 3 2.98 3 4 3 C4.33 2.34 4.66 1.68 5 1 C5 9.58 5 18.16 5 27 C0.05 27 -4.9 27 -10 27 C-13.07692308 20.6 -13.07692308 20.6 -12.6875 17.5625 C-12.460625 17.046875 -12.23375 16.53125 -12 16 C-11.34 16 -10.68 16 -10 16 C-10 14.35 -10 12.7 -10 11 C-7.36 10.67 -4.72 10.34 -2 10 C-2 7.03 -2 4.06 -2 1 C-1.34 0.67 -0.68 0.34 0 0 Z " fill="#2A2A29" transform="translate(205,183)"/>
<path d="M0 0 C30.36 0 60.72 0 92 0 C92.495 8.91 92.495 8.91 93 18 C93.66 18.33 94.32 18.66 95 19 C94.01 22.96 93.02 26.92 92 31 C91.67 31 91.34 31 91 31 C91 21.1 91 11.2 91 1 C60.97 1 30.94 1 0 1 C0 0.67 0 0.34 0 0 Z " fill="#191919" transform="translate(24,38)"/>
<path d="M0 0 C0 0.66 0 1.32 0 2 C0.99 2.33 1.98 2.66 3 3 C2.360625 3.7425 1.72125 4.485 1.0625 5.25 C-0.78333407 7.7111121 -1.56069174 9.03466926 -2 12 C-3.32 11.67 -4.64 11.34 -6 11 C-6.33 11.99 -6.66 12.98 -7 14 C-8.5625 12.25 -8.5625 12.25 -10 10 C-9.6875 7.75 -9.6875 7.75 -9 6 C-8.34 6 -7.68 6 -7 6 C-7 4.35 -7 2.7 -7 1 C-4 0 -4 0 0 0 Z " fill="#242424" transform="translate(202,193)"/>
<path d="M0 0 C0.66 0 1.32 0 2 0 C2.33 0.66 2.66 1.32 3 2 C4.98 2 6.96 2 9 2 C9 3.98 9 5.96 9 8 C4.05 8 -0.9 8 -6 8 C-5.67 6.02 -5.34 4.04 -5 2 C-3.68 2 -2.36 2 -1 2 C-0.67 1.34 -0.34 0.68 0 0 Z " fill="#2E2D2D" transform="translate(201,202)"/>
<path d="M0 0 C3.3 0 6.6 0 10 0 C9.34 1.65 8.68 3.3 8 5 C6.35 4.67 4.7 4.34 3 4 C3.33 5.32 3.66 6.64 4 8 C2.68 8 1.36 8 0 8 C0 5.36 0 2.72 0 0 Z " fill="#171717" transform="translate(0,0)"/>
<path d="M0 0 C0.33 0 0.66 0 1 0 C1 5.61 1 11.22 1 17 C-0.65 17.33 -2.3 17.66 -4 18 C-3.54372102 13.43721015 -3.18366565 10.05537907 -1 6 C-1.33 5.34 -1.66 4.68 -2 4 C-1.0625 1.875 -1.0625 1.875 0 0 Z " fill="#222323" transform="translate(209,150)"/>
<path d="M0 0 C0 0.66 0 1.32 0 2 C0.99 2.33 1.98 2.66 3 3 C1.25 5.0625 1.25 5.0625 -1 7 C-3.125 7.0625 -3.125 7.0625 -5 6 C-6.25 3.4375 -6.25 3.4375 -7 1 C-4 0 -4 0 0 0 Z " fill="#1A1919" transform="translate(202,193)"/>
<path d="M0 0 C0.33 0 0.66 0 1 0 C1 4.95 1 9.9 1 15 C0.67 15 0.34 15 0 15 C-0.12375 14.195625 -0.2475 13.39125 -0.375 12.5625 C-0.58125 11.716875 -0.7875 10.87125 -1 10 C-1.66 9.67 -2.32 9.34 -3 9 C-3 8.34 -3 7.68 -3 7 C-3.66 7 -4.32 7 -5 7 C-5.33 6.01 -5.66 5.02 -6 4 C-4.68 4 -3.36 4 -2 4 C-2 3.34 -2 2.68 -2 2 C-1.34 2 -0.68 2 0 2 C0 1.34 0 0.68 0 0 Z " fill="#161717" transform="translate(209,78)"/>
<path d="M0 0 C0.33 0 0.66 0 1 0 C1 4.95 1 9.9 1 15 C0.67 14.01 0.34 13.02 0 12 C-0.99 11.67 -1.98 11.34 -3 11 C-3 8.03 -3 5.06 -3 2 C-2.34 2 -1.68 2 -1 2 C-0.67 1.34 -0.34 0.68 0 0 Z " fill="#212221" transform="translate(209,168)"/>
<path d="M0 0 C0.33 1.32 0.66 2.64 1 4 C1.99 4.33 2.98 4.66 4 5 C3.01 5.495 3.01 5.495 2 6 C2.54723683 9.37462715 3.0549 11.08235 5 14 C4.360625 14.268125 3.72125 14.53625 3.0625 14.8125 C0.66868314 15.88667752 0.66868314 15.88667752 0 19 C0 12.73 0 6.46 0 0 Z " fill="#DADADA" transform="translate(55,75)"/>
<path d="M0 0 C0.33 0 0.66 0 1 0 C1 4.29 1 8.58 1 13 C1.99 13.33 2.98 13.66 4 14 C3.67 14.99 3.34 15.98 3 17 C2.67 16.67 2.34 16.34 2 16 C1.67 19.3 1.34 22.6 1 26 C0.67 26 0.34 26 0 26 C0 17.42 0 8.84 0 0 Z " fill="#D6D6D6" transform="translate(55,99)"/>
<path d="M0 0 C0.33 0.99 0.66 1.98 1 3 C1.99 3.33 2.98 3.66 4 4 C3.34 4 2.68 4 2 4 C1.67 6.31 1.34 8.62 1 11 C0.01 10.67 -0.98 10.34 -2 10 C-2 7.03 -2 4.06 -2 1 C-1.34 0.67 -0.68 0.34 0 0 Z " fill="#1F1E1E" transform="translate(205,183)"/>
<path d="M0 0 C0.66 0 1.32 0 2 0 C2 0.66 2 1.32 2 2 C3.093125 1.835 4.18625 1.67 5.3125 1.5 C9 1 9 1 12 1 C12 1.66 12 2.32 12 3 C12.66 3.33 13.32 3.66 14 4 C9.05 4 4.1 4 -1 4 C-0.67 2.68 -0.34 1.36 0 0 Z " fill="#D8D7D8" transform="translate(66,152)"/>
<path d="M0 0 C2.4375 0.375 2.4375 0.375 5 1 C6.35439668 3.70879335 6.06501451 6.00933268 6 9 C5.01 9.33 4.02 9.66 3 10 C3 7.36 3 4.72 3 2 C2.01 1.67 1.02 1.34 0 1 C0 0.67 0 0.34 0 0 Z " fill="#171819" transform="translate(135,3)"/>
<path d="M0 0 C0.99 0.66 1.98 1.32 3 2 C3 2.66 3 3.32 3 4 C3.66 4 4.32 4 5 4 C5 4.66 5 5.32 5 6 C2.03 6 -0.94 6 -4 6 C-3 4 -3 4 0 3 C0 2.01 0 1.02 0 0 Z " fill="#E6E7E6" transform="translate(44,64)"/>
<path d="M0 0 C0.33 0 0.66 0 1 0 C1 3.3 1 6.6 1 10 C-0.98 10.99 -0.98 10.99 -3 12 C-2.649375 11.05125 -2.29875 10.1025 -1.9375 9.125 C-0.64973223 6.12939828 -0.64973223 6.12939828 -2 4 C-1.0625 1.875 -1.0625 1.875 0 0 Z " fill="#1A1A1B" transform="translate(209,150)"/>
<path d="M0 0 C0.99 0 1.98 0 3 0 C3 0.66 3 1.32 3 2 C3.99 2 4.98 2 6 2 C6 2.66 6 3.32 6 4 C0.25 5.125 0.25 5.125 -2 4 C-1.34 2.68 -0.68 1.36 0 0 Z " fill="#D7D6D7" transform="translate(79,133)"/>
<path d="M0 0 C0.66 0 1.32 0 2 0 C1.979375 0.763125 1.95875 1.52625 1.9375 2.3125 C1.87057159 5.10185786 1.87057159 5.10185786 3 8 C1.68 8 0.36 8 -1 8 C-1.125 2.25 -1.125 2.25 0 0 Z " fill="#363635" transform="translate(201,202)"/>
<path d="M0 0 C0.66 0 1.32 0 2 0 C2 0.66 2 1.32 2 2 C3.45833358 3.62514468 3.45833358 3.62514468 5 5 C2.36 5 -0.28 5 -3 5 C-1.625 2.5 -1.625 2.5 0 0 Z " fill="#1E1E1E" transform="translate(182,205)"/>
<path d="M0 0 C2.31 0.33 4.62 0.66 7 1 C7 1.66 7 2.32 7 3 C6.21625 3.12375 5.4325 3.2475 4.625 3.375 C1.85942178 3.79117993 1.85942178 3.79117993 0 6 C0 4.02 0 2.04 0 0 Z " fill="#1F1E1E" transform="translate(203,201)"/>
<path d="M0 0 C0.99 0.33 1.98 0.66 3 1 C2.67 2.32 2.34 3.64 2 5 C0.68 5 -0.64 5 -2 5 C-1.34 3.35 -0.68 1.7 0 0 Z " fill="#222121" transform="translate(206,195)"/>
<path d="M0 0 C0.66 0 1.32 0 2 0 C3.125 3.75 3.125 3.75 2 6 C-0.0625 6.625 -0.0625 6.625 -2 7 C-1.34 4.69 -0.68 2.38 0 0 Z " fill="#151515" transform="translate(207,180)"/>
<path d="M0 0 C0.99 0 1.98 0 3 0 C3.33 1.32 3.66 2.64 4 4 C3.34 4 2.68 4 2 4 C1.34 4.66 0.68 5.32 0 6 C-0.38218767 4.34385343 -0.71395102 2.67542976 -1 1 C-0.67 0.67 -0.34 0.34 0 0 Z " fill="#1E1D1D" transform="translate(193,199)"/>
<path d="M0 0 C2.31 0 4.62 0 7 0 C7 0.66 7 1.32 7 2 C5.68 1.67 4.36 1.34 3 1 C3 1.66 3 2.32 3 3 C2.34 3 1.68 3 1 3 C0.67 3.66 0.34 4.32 0 5 C0 3.35 0 1.7 0 0 Z " fill="#D8D8D9" transform="translate(26,41)"/>
</svg>
